<svg xmlns="http://www.w3.org/2000/svg" version="1.1" xmlns:xlink="http://www.w3.org/1999/xlink" xmlns:svgjs="http://svgjs.dev/svgjs" width="1000" height="1000"><style>
    #light-icon {
      display: inline;
    }
    #dark-icon {
      display: none;
    }

    @media (prefers-color-scheme: dark) {
      #light-icon {
        display: none;
      }
      #dark-icon {
        display: inline;
      }
    }
  </style><g id="light-icon"><svg xmlns="http://www.w3.org/2000/svg" version="1.1" xmlns:xlink="http://www.w3.org/1999/xlink" xmlns:svgjs="http://svgjs.dev/svgjs" width="1000" height="1000"><g><g transform="matrix(2.5,0,0,2.5,0,0)"><svg xmlns="http://www.w3.org/2000/svg" version="1.1" xmlns:xlink="http://www.w3.org/1999/xlink" xmlns:svgjs="http://svgjs.dev/svgjs" width="400" height="400"><svg width="400" height="400" viewBox="0 0 400 400" fill="none" xmlns="http://www.w3.org/2000/svg">
<path d="M135 50C154.33 50 170 65.67 170 85L170 350L125 350C105.67 350 90 334.33 90 315L90 50L135 50Z" fill="#A4A5A9"></path>
<path d="M310 315C310 334.33 294.33 350 275 350L90 350L90 305C90 285.67 105.67 270 125 270L310 270L310 315Z" fill="#212123"></path>
<path d="M250 315C250 334.33 234.33 350 215 350L90 350L90 305C90 285.67 105.67 270 125 270L250 270L250 315Z" fill="#616163"></path>
</svg></svg></g></g></svg></g><g id="dark-icon"><svg xmlns="http://www.w3.org/2000/svg" version="1.1" xmlns:xlink="http://www.w3.org/1999/xlink" xmlns:svgjs="http://svgjs.dev/svgjs" width="1000" height="1000"><g><g transform="matrix(2.5,0,0,2.5,0,0)"><svg xmlns="http://www.w3.org/2000/svg" version="1.1" xmlns:xlink="http://www.w3.org/1999/xlink" xmlns:svgjs="http://svgjs.dev/svgjs" width="400" height="400"><svg width="400" height="400" viewBox="0 0 400 400" fill="none" xmlns="http://www.w3.org/2000/svg">
<path d="M135 50C154.33 50 170 65.67 170 85L170 350L125 350C105.67 350 90 334.33 90 315L90 50L135 50Z" fill="#949599"></path>
<path d="M310 315C310 334.33 294.33 350 275 350L90 350L90 305C90 285.67 105.67 270 125 270L310 270L310 315Z" fill="#F6F6F6"></path>
<path d="M250 315C250 334.33 234.33 350 215 350L90 350L90 305C90 285.67 105.67 270 125 270L250 270L250 315Z" fill="#BCBDC1"></path>
</svg></svg></g></g></svg></g></svg>